<?xml version="1.0" encoding="UTF-8"?>
<svg width="106px" height="64px" viewBox="0 0 106 64" version="1.1" xmlns="http://www.w3.org/2000/svg" xmlns:xlink="http://www.w3.org/1999/xlink">
    <!-- Generator: Sketch 43.2 (39069) - http://www.bohemiancoding.com/sketch -->
    <title>Logo</title>
    <desc>Created with Sketch.</desc>
    <defs></defs>
    <g id="Page-1" stroke="none" stroke-width="1" fill="none" fill-rule="evenodd">
        <g id="Desktop-Q1" transform="translate(-47.000000, -26.000000)">
            <g id="Logo" transform="translate(54.000000, 29.000000)">
                <path d="M37.9419937,28.1627205 C37.7738482,28.1788849 37.6065229,28.2144466 37.4383774,28.2710219 C37.2710521,28.326789 37.1053672,28.3979123 36.9429633,28.4827753 C36.694436,28.621789 36.5164478,28.7737342 36.4106392,28.938611 C36.3048306,29.1051041 36.2088646,29.3047342 36.1227413,29.539926 C35.8241805,30.3505699 35.3656764,31.6501863 34.7455885,33.4379671 C34.1255007,35.2257479 33.479986,37.0830356 32.8082241,39.0090219 L31.1669599,39.0090219 L28.1313182,30.5712137 L25.3893161,39.0090219 L23.7505125,39.0090219 C22.8458076,36.4154466 22.15272,34.418337 21.6704295,33.0176932 C21.1889592,31.6162411 20.7821291,30.4410904 20.4523998,29.4914329 C20.3490518,29.2037068 20.2325803,28.9935699 20.102165,28.8634466 C19.9725699,28.7325151 19.8052446,28.6007753 19.5993689,28.466611 C19.4525492,28.3704329 19.2975272,28.3001178 19.1318424,28.2548575 C18.9669778,28.2095973 18.775866,28.1732274 18.5593274,28.1465562 L18.5593274,27.522611 L24.7085318,27.522611 L24.7085318,28.1303918 C24.3468139,28.1732274 24.0761406,28.2144466 23.8981525,28.2548575 C23.7201643,28.2952685 23.5790861,28.3356795 23.4765583,28.3793233 C23.3789519,28.4213507 23.3198959,28.466611 23.29775,28.5151041 C23.2764242,28.562789 23.2649411,28.6056247 23.2649411,28.6428027 C23.2649411,28.7179671 23.2747837,28.7898986 23.2936488,28.8594055 C23.3133342,28.9281041 23.3330195,29.0081178 23.3551655,29.0994466 C23.4847606,29.5148712 23.7472316,30.3036932 24.1425786,31.4659123 C24.5387458,32.6281315 25.0259577,34.0699945 25.6050345,35.7915014 L28.2330258,27.522611 L29.9563122,27.522611 L32.9911336,36.0549808 C33.4406153,34.6834329 33.7990523,33.5632411 34.0672649,32.692789 C34.3354775,31.8231452 34.5610386,31.0787753 34.7455885,30.4596795 C34.8538578,30.0814329 34.9399811,29.7638027 35.0047787,29.5075973 C35.0703964,29.2513918 35.1032053,29.0299397 35.1032053,28.8432411 C35.1032053,28.7308986 35.0498909,28.6347205 34.9449025,28.5547068 C34.8390938,28.4746932 34.6971954,28.4051863 34.5192072,28.3469945 C34.3674662,28.2985014 34.1722533,28.2605151 33.9311081,28.230611 C33.690783,28.2015151 33.4816264,28.1788849 33.3036382,28.1627205 L33.3036382,27.522611 L37.9419937,27.522611 L37.9419937,28.1627205 Z" id="Fill-1" fill="#FFFFFF"></path>
                <path d="M42.0527003,27.9626055 C42.0527003,28.3683315 41.8943975,28.7134411 41.5769715,28.9995507 C41.2603659,29.2848521 40.8855244,29.4270986 40.4524472,29.4270986 C40.0136284,29.4270986 39.6363263,29.2848521 39.3189004,28.9995507 C39.0022947,28.7134411 38.8439918,28.3683315 38.8439918,27.9626055 C38.8439918,27.5568795 39.0022947,27.2101534 39.3189004,26.9216192 C39.6363263,26.6338932 40.0136284,26.4900301 40.4524472,26.4900301 C40.8904457,26.4900301 41.2669276,26.6338932 41.5818929,26.9216192 C41.8960379,27.2101534 42.0527003,27.5568795 42.0527003,27.9626055 L42.0527003,27.9626055 Z M43.2387413,38.8808384 L38.1049718,38.8808384 L38.1049718,38.2964959 C38.2452298,38.285989 38.3838473,38.2722493 38.5191839,38.2568932 C38.6545205,38.2407288 38.7709921,38.2140575 38.8685985,38.1768795 C39.0416653,38.1130301 39.1638784,38.0200849 39.2335973,37.9004685 C39.3041364,37.7800438 39.3394059,37.6216329 39.3394059,37.4244274 L39.3394059,32.7650438 C39.3394059,32.5783452 39.2959341,32.4142767 39.2098108,32.2728384 C39.1228673,32.1314 39.014598,32.0182493 38.8841827,31.9333863 C38.7873965,31.8687288 38.6389363,31.8073041 38.442083,31.7491123 C38.2435893,31.6901123 38.0639607,31.6529342 37.9015567,31.6367699 L37.9015567,31.0524274 L41.8820941,30.8439068 L42.003487,30.9643315 L42.003487,37.3201671 C42.003487,37.5068658 42.0444981,37.6652767 42.1257001,37.7962082 C42.2069021,37.9271397 42.3233736,38.0249342 42.4751146,38.0887836 C42.583384,38.1364685 42.7023161,38.1793041 42.8327314,38.2164822 C42.9623265,38.2536603 43.0976632,38.2811397 43.2387413,38.2964959 L43.2387413,38.8808384 Z" id="Fill-3" fill="#FFFFFF"></path>
                <path d="M54.7093,38.8810808 L49.8273387,38.8810808 L49.8273387,38.2967384 C49.9298664,38.2862315 50.0545402,38.2724918 50.2005397,38.2571356 C50.3473594,38.2409712 50.4580894,38.2143 50.5335498,38.1763137 C50.6475607,38.1181219 50.7287626,38.0324507 50.777976,37.9209164 C50.8263691,37.808574 50.8501555,37.642889 50.8501555,37.4238616 L50.8501555,33.6777658 C50.8501555,33.1338342 50.748448,32.7240671 50.5450329,32.4492726 C50.3416179,32.1744781 50.0414166,32.0370808 49.6452494,32.0370808 C49.4278905,32.0370808 49.2252957,32.0686014 49.0382851,32.1332589 C48.8504542,32.1971082 48.6675447,32.2908616 48.4887363,32.413711 C48.3312537,32.5195877 48.2041193,32.6295055 48.1097938,32.7410397 C48.014648,32.8533822 47.9342663,32.9519849 47.8694687,33.0376562 L47.8694687,37.3357658 C47.8694687,37.5224644 47.8965361,37.6792589 47.9506707,37.8045329 C48.0048054,37.9298068 48.0942096,38.0243685 48.2180631,38.089026 C48.3050066,38.136711 48.4132759,38.1795466 48.5436912,38.2167247 C48.6732863,38.2539027 48.8004207,38.280574 48.9250944,38.2967384 L48.9250944,38.8810808 L43.9865377,38.8810808 L43.9865377,38.2967384 C44.1218744,38.2862315 44.2580312,38.2716836 44.3966487,38.2530945 C44.534446,38.2336973 44.652558,38.2086425 44.7493442,38.1763137 C44.9232313,38.1181219 45.0421635,38.0267932 45.106961,37.9047521 C45.1725788,37.7819027 45.2045674,37.6218753 45.2045674,37.4238616 L45.2045674,32.7652863 C45.2045674,32.6004096 45.1610957,32.4371493 45.0749723,32.2771219 C44.9880288,32.1170945 44.874018,31.986163 44.73376,31.8851356 C44.6361536,31.8212863 44.5131203,31.7671356 44.3638399,31.7251082 C44.2153797,31.6822726 44.0513353,31.6531767 43.8725269,31.6370123 L43.8725269,31.0518616 L47.7472556,30.8441493 L47.8694687,30.964574 L47.8694687,32.1251767 L47.9014574,32.1251767 C48.0531985,31.9918205 48.2377484,31.8317932 48.454287,31.6442863 C48.6708256,31.4575877 48.8709598,31.3056425 49.0555097,31.1884507 C49.2556439,31.0607521 49.518115,30.9508342 49.8429229,30.8603137 C50.168551,30.7697932 50.5146847,30.7245329 50.8829644,30.7245329 C51.7663435,30.7245329 52.4282626,30.9710397 52.8695421,31.4648616 C53.3108215,31.9586836 53.5314612,32.6133411 53.5314612,33.4296425 L53.5314612,37.3519301 C53.5314612,37.5499438 53.5609892,37.7067384 53.6208654,37.8239301 C53.6807417,37.9419301 53.7914716,38.0356836 53.9538756,38.1043822 C54.0408191,38.1415603 54.147448,38.1795466 54.2745824,38.2167247 C54.4017168,38.2539027 54.5468961,38.280574 54.7093,38.2967384 L54.7093,38.8810808 Z" id="Fill-5" fill="#FFFFFF"></path>
                <path d="M61.817344,37.2879192 L61.817344,32.7651247 C61.7796138,32.6422753 61.7271195,32.5064945 61.6598613,32.356974 C61.5917829,32.2074534 61.4982776,32.0668233 61.3801656,31.9334671 C61.2718963,31.8211247 61.1275373,31.7217137 60.9462682,31.6368507 C60.7649991,31.5511795 60.5615841,31.5091521 60.3343826,31.5091521 C59.7946765,31.5091521 59.3517566,31.8106178 59.0056229,32.4135493 C58.6594892,33.0164808 58.4864224,33.8675356 58.4864224,34.9667137 C58.4864224,35.399111 58.5175908,35.7870562 58.5799277,36.1313575 C58.6422646,36.4756589 58.7513541,36.7892479 58.9080165,37.0721247 C59.0654991,37.3550014 59.2664535,37.5764534 59.5116999,37.7364808 C59.7577665,37.8965082 60.0538667,37.9765219 60.3991801,37.9765219 C60.7289094,37.9765219 61.0020433,37.9134808 61.2177617,37.7882068 C61.4334801,37.6629329 61.6336142,37.4964397 61.817344,37.2879192 L61.817344,37.2879192 Z M65.9602853,38.7128096 L61.9551413,38.9447685 L61.8337484,38.8332342 L61.8337484,38.0961384 L61.7771531,38.0807822 C61.5122214,38.3636589 61.1537844,38.6101658 60.701842,38.821111 C60.2498997,39.0320562 59.7946765,39.1371247 59.3353522,39.1371247 C58.2428165,39.1371247 57.3413925,38.7370562 56.6335409,37.936111 C55.9248691,37.135974 55.5705332,36.1006452 55.5705332,34.8301247 C55.5705332,33.7042753 55.9667004,32.7392616 56.7590348,31.9334671 C57.5513693,31.1268644 58.5102088,30.7243712 59.6347332,30.7243712 C60.0784733,30.7243712 60.4951461,30.7736726 60.8847515,30.8722753 C61.2735368,30.9708781 61.5852211,31.0872616 61.817344,31.2206178 L61.817344,28.6027959 C61.817344,28.4055904 61.7771531,28.2197 61.6959511,28.0467411 C61.6139289,27.872974 61.5064798,27.7388096 61.3711432,27.6426315 C61.2029977,27.5246315 60.9930208,27.4405767 60.7412127,27.3904671 C60.4894045,27.3395493 60.2359559,27.3031795 59.9816871,27.2821658 L59.9816871,26.6978233 L64.3764366,26.490111 L64.4986497,26.6178096 L64.4986497,37.1117274 C64.4986497,37.3145904 64.5322788,37.4859329 64.599537,37.6241384 C64.6667952,37.7631521 64.7758847,37.8722616 64.9268056,37.9522753 C65.039176,38.0112753 65.2048609,38.054111 65.4230399,38.0807822 C65.641219,38.1074534 65.8200274,38.1236178 65.9602853,38.1284671 L65.9602853,38.7128096 Z" id="Fill-7" fill="#FFFFFF"></path>
                <path d="M72.7112866,37.4323479 C72.8302188,37.1333068 72.9179826,36.7704164 72.9753981,36.3436767 C73.0319934,35.916937 73.0607012,35.4206904 73.0607012,34.854937 C73.0607012,34.4815397 73.0336339,34.0539918 72.9794992,33.5739096 C72.9253646,33.0938274 72.8441626,32.7147726 72.7358933,32.4367452 C72.605478,32.1013342 72.4258493,31.8370466 72.195367,31.6446904 C71.9648846,31.4531425 71.6737058,31.3561562 71.3218305,31.3561562 C70.9371464,31.3561562 70.6303834,31.4604164 70.399901,31.668937 C70.1702388,31.8766493 69.9930709,32.1465945 69.8683971,32.4771562 C69.7543863,32.7818548 69.675645,33.1374712 69.6321732,33.5456219 C69.5887014,33.9537726 69.5673757,34.3797041 69.5673757,34.8226082 C69.5673757,35.404526 69.5862408,35.8854164 69.623971,36.2677041 C69.6625214,36.6491836 69.7543863,37.0314712 69.9003858,37.4161836 C70.0250595,37.7467452 70.2038679,38.0086082 70.436811,38.2009644 C70.669754,38.3925123 70.965034,38.4886904 71.3218305,38.4886904 C71.6474587,38.4886904 71.9255139,38.3989781 72.1592772,38.2203616 C72.3914,38.0417452 72.57595,37.779074 72.7112866,37.4323479 M74.7913696,31.8847315 C75.191638,32.2532795 75.4975808,32.6937589 75.709198,33.2061699 C75.9199951,33.7177726 76.0258037,34.2730192 76.0258037,34.8711014 C76.0258037,35.4627178 75.9216355,36.0220055 75.7132992,36.5473479 C75.5041425,37.0734986 75.1998402,37.5228685 74.7987516,37.8962658 C74.371416,38.2963342 73.8604176,38.6034575 73.2673971,38.8168274 C72.6751968,39.0310055 71.996053,39.1368822 71.2324263,39.1368822 C70.5721476,39.1368822 69.9643631,39.043937 69.4090728,38.8572384 C68.8537825,38.6705397 68.3624695,38.3900877 67.9343136,38.0166904 C67.5225622,37.6586493 67.1977543,37.2173616 66.9598899,36.691211 C66.7212053,36.1658685 66.6022731,35.5774849 66.6022731,34.9268685 C66.6022731,34.2859507 66.7064413,33.7169644 66.9147777,33.2174849 C67.1239343,32.7188137 67.4364389,32.2742932 67.8531117,31.8847315 C68.2542002,31.5113342 68.7479739,31.2219918 69.336073,31.0167041 C69.923352,30.8106082 70.5803498,30.7079644 71.3062463,30.7079644 C72.0641314,30.7079644 72.7317922,30.8106082 73.3084082,31.0167041 C73.8850243,31.2219918 74.3796182,31.5113342 74.7913696,31.8847315" id="Fill-9" fill="#FFFFFF"></path>
                <path d="M91.0790102,31.524589 C90.8296627,31.5617671 90.6000005,31.6433973 90.3883832,31.7686712 C90.176766,31.8947534 89.9987778,32.1275205 89.851958,32.4693973 C89.4730155,33.3818767 89.1695333,34.1181644 88.9423318,34.6782603 C88.7151303,35.2391644 88.3952437,36.0473836 87.9834923,37.103726 C87.897369,37.3227534 87.7932008,37.6242192 87.6709877,38.0081233 C87.5487746,38.3928356 87.4528087,38.7072329 87.3822696,38.9529315 L85.79514,38.9529315 L83.7486861,33.5031096 L81.8318272,38.9529315 L80.2660234,38.9529315 C79.7189354,37.4965205 79.2883188,36.3658219 78.974994,35.5632603 C78.6600287,34.7598904 78.2408953,33.6995068 77.7159532,32.3813014 C77.6175266,32.1307534 77.4518417,31.9327397 77.2156178,31.7888767 C76.9802141,31.6442055 76.7382486,31.5569178 76.4889011,31.524589 L76.4889011,30.9402466 L81.4766711,30.9402466 L81.4766711,31.524589 C81.2921212,31.5407534 81.0731219,31.583589 80.8180328,31.6530959 C80.563764,31.7217945 80.4358094,31.8155479 80.4358094,31.9327397 C80.4358094,31.9860822 80.4431914,32.0329589 80.4563149,32.0733699 C80.4694385,32.1129726 80.4932249,32.1865205 80.5252136,32.2932055 C80.6720333,32.7102466 80.8721675,33.2493288 81.1272565,33.9096438 C81.3823456,34.5699589 81.6800862,35.3385753 82.0221187,36.2154932 L83.8257869,30.9402466 L85.4375232,30.9402466 L87.487258,36.3779452 C87.8005828,35.5567945 88.0425483,34.9110274 88.2131545,34.4390274 C88.3837606,33.9678356 88.5986588,33.3592466 88.8586692,32.6132603 C88.8963994,32.5009178 88.9193656,32.4006986 88.9275678,32.313411 C88.9357701,32.2253151 88.9374105,32.1679315 88.9316689,32.1412603 C88.9316689,32.0450822 88.8832758,31.9586027 88.7856694,31.8810137 C88.688063,31.8034247 88.5724117,31.7411918 88.4370751,31.6926986 C88.3017384,31.6442055 88.1713231,31.6078356 88.0441887,31.5803562 C87.9170543,31.5544932 87.8104255,31.5350959 87.7234819,31.524589 L87.7234819,30.9402466 L91.0790102,30.9402466 L91.0790102,31.524589 Z" id="Fill-11" fill="#FFFFFF"></path>
                <path d="M95.1973449,39.1533699 C94.6715826,39.1533699 94.1589438,39.0773973 93.6586084,38.9246438 C93.1574527,38.7726986 92.7686675,38.611863 92.4922527,38.4405205 L92.2486467,38.9852603 L91.6146151,38.9852603 L91.5096267,35.9996986 L92.1026472,35.9996986 C92.1838492,36.2397397 92.3191858,36.5104932 92.5086571,36.8119589 C92.6981284,37.1134247 92.914667,37.3841781 93.1582729,37.6242192 C93.413362,37.8642603 93.7045408,38.0671233 94.0318094,38.2328082 C94.359078,38.3976849 94.710133,38.4809315 95.083334,38.4809315 C95.5762874,38.4809315 95.9437469,38.3863699 96.1840719,38.1964384 C96.4252172,38.0073151 96.5457898,37.7147397 96.5457898,37.3203288 C96.5457898,37.1069589 96.4916552,36.9307671 96.3833859,36.7917534 C96.2751166,36.6527397 96.1258362,36.5331233 95.9363649,36.4312877 C95.7255678,36.3246027 95.493445,36.2340822 95.2424571,36.1589178 C94.9906489,36.0845616 94.680605,35.9940411 94.3115051,35.8873562 C93.9440456,35.7806712 93.6282602,35.6723699 93.3657891,35.5632603 C93.1033181,35.4533425 92.8310044,35.2811918 92.548848,35.0468082 C92.3052421,34.8390959 92.1108494,34.5877397 91.9640297,34.2943562 C91.8180302,34.0009726 91.7450304,33.6510137 91.7450304,33.2452877 C91.7450304,32.4928356 92.0657372,31.8850548 92.7071508,31.4203288 C93.3493847,30.956411 94.1901122,30.7244521 95.2301537,30.7244521 C95.7231072,30.7244521 96.1758697,30.7737534 96.5909021,30.8723562 C97.0051142,30.9709589 97.3528883,31.0792603 97.6342244,31.1964521 L97.8048306,30.7244521 L98.4224578,30.7244521 L98.5520529,33.4538082 L97.983639,33.4538082 C97.7941677,32.8985616 97.4693598,32.4200959 97.0083951,32.0167945 C96.5482505,31.6143014 96.0528364,31.4122466 95.5221528,31.4122466 C95.10548,31.4122466 94.7773912,31.4979178 94.5395268,31.6684521 C94.3008422,31.8397945 94.18191,32.077411 94.18191,32.3813014 C94.18191,32.7870274 94.3566173,33.080411 94.7052117,33.2614521 C95.053806,33.4433014 95.5410179,33.6138356 96.1693079,33.773863 C97.1363497,34.0195616 97.8450215,34.3541644 98.2936829,34.7784795 C98.7423444,35.2027945 98.9670852,35.7434932 98.9670852,36.3997671 C98.9670852,37.2750685 98.6184909,37.9523562 97.9229426,38.4324384 C97.2273943,38.9133288 96.3185883,39.1533699 95.1973449,39.1533699" id="Fill-13" fill="#FFFFFF"></path>
                <text id="Survey" font-family="Georgia" font-size="12" font-weight="normal" fill="#FFFFFF">
                    <tspan x="23.1416016" y="51.12">Survey</tspan>
                </text>
                <polyline id="Stroke-39" stroke="#4990E2" stroke-width="4.226" points="35.6234721 58.8667247 14.2181384 58.8667247 14.2181384 24.1860397 0.0930951979 24.1860397 37.1129953 0.419546575 74.6963879 24.3743548"></polyline>
            </g>
        </g>
    </g>
</svg>